<?xml version="1.0" encoding="iso-8859-1"?>
<!-- Generator: Adobe Illustrator 19.0.0, SVG Export Plug-In . SVG Version: 6.00 Build 0)  -->
<svg version="1.1" id="Capa_1" xmlns="http://www.w3.org/2000/svg" xmlns:xlink="http://www.w3.org/1999/xlink" x="0px" y="0px"
	 viewBox="0 0 60 60" style="enable-background:new 0 0 60 60;" xml:space="preserve">
<g>
	<g>
		<path d="M7,39H5v20c0,0.6,0.4,1,1,1h17v-2H7V39z"/>
		<path d="M7,2h36v9c0,0.6,0.4,1,1,1h9v28h2V11c0-0.1,0-0.2-0.1-0.3v-0.1c-0.1-0.1-0.1-0.2-0.2-0.3l-10-10c-0.1-0.1-0.2-0.1-0.3-0.2
			h-0.1C44.2,0.1,44.1,0,44,0H6C5.4,0,5,0.4,5,1v16h2V2z M45,3.4l6.6,6.6H45V3.4z"/>
		<rect x="10" y="5" width="2" height="2"/>
		<rect x="10" y="9" width="14" height="2"/>
		<rect x="10" y="13" width="14" height="2"/>
		<rect x="14" y="5" width="2" height="2"/>
		<rect x="18" y="5" width="2" height="2"/>
		<path d="M34,35v-7.6l5.7-5.7c0.3-0.3,0.4-0.7,0.2-1.1C39.8,20.2,39.4,20,39,20H1c-0.6,0-1,0.4-1,1v14c0,0.6,0.4,1,1,1h32
			C33.6,36,34,35.6,34,35z M32,27v7H2V22h34.6l-4.3,4.3C32.1,26.5,32,26.7,32,27z"/>
		<path d="M59,44H22c-0.4,0-0.7,0.2-0.9,0.6c-0.2,0.4-0.1,0.8,0.1,1.1l4.8,5.7V59c0,0.6,0.4,1,1,1h32c0.6,0,1-0.4,1-1V45
			C60,44.4,59.6,44,59,44z M58,58L58,58H28h-0.1v-7c0-0.2-0.1-0.4-0.2-0.6L24.1,46H58L58,58L58,58z"/>
		<rect x="4" y="25" width="2" height="2"/>
		<rect x="8" y="25" width="2" height="2"/>
		<rect x="12" y="25" width="18" height="2"/>
		<rect x="4" y="29" width="2" height="2"/>
		<rect x="8" y="29" width="22" height="2"/>
		<rect x="30" y="49" width="2" height="2"/>
		<rect x="34" y="49" width="22" height="2"/>
		<rect x="30" y="53" width="2" height="2"/>
		<rect x="34" y="53" width="2" height="2"/>
		<rect x="38" y="53" width="18" height="2"/>
		<rect x="42" y="22" width="8" height="2"/>
		<rect x="40" y="26" width="10" height="2"/>
		<rect x="36" y="30" width="14" height="2"/>
		<rect x="36" y="34" width="14" height="2"/>
		<rect x="9" y="54" width="2" height="2"/>
		<rect x="13" y="54" width="2" height="2"/>
		<rect x="17" y="54" width="2" height="2"/>
		<rect x="9" y="50" width="2" height="2"/>
		<rect x="13" y="50" width="2" height="2"/>
		<rect x="9" y="46" width="2" height="2"/>
		<rect x="9" y="42" width="2" height="2"/>
		<rect x="13" y="46" width="2" height="2"/>
		<rect x="17" y="50" width="2" height="2"/>
		<rect x="21" y="54" width="2" height="2"/>
	</g>
</g>
<g>
</g>
<g>
</g>
<g>
</g>
<g>
</g>
<g>
</g>
<g>
</g>
<g>
</g>
<g>
</g>
<g>
</g>
<g>
</g>
<g>
</g>
<g>
</g>
<g>
</g>
<g>
</g>
<g>
</g>
</svg>
